# xmcd
#
# Track frame offsets: 
#        150
#        21152
#        39049
#        61432
#        75065
#        97463
#        116366
#        145078
#        166610
#        178064
#        195207
#
# Disc length: 3027 seconds
#
# Revision: 1
# Processed by: cddbd v1.5.2PL0 Copyright (c) Steve Scherf et al.
# Submitted via: ExactAudioCopyFreeDBPlugin 1.0
#
DISCID=7b0bd10b
DTITLE=Etta James - The Dreamer
DYEAR=2011
DGENRE=Blues
TTITLE0=Groove Me
TTITLE1=Champagne and Wine
TTITLE2=Dreamer
TTITLE3=Welcome To The Jungle
TTITLE4=Misty Blue
TTITLE5=Boondocks
TTITLE6=Cigarettes and Coffee
TTITLE7=In The Evening
TTITLE8=Too Tired
TTITLE9=That's The Chance You Take
TTITLE10=Let Me Down Easy
EXTD=YEAR: 2011
EXTT0=
EXTT1=
EXTT2=
EXTT3=
EXTT4=
EXTT5=
EXTT6=
EXTT7=
EXTT8=
EXTT9=
EXTT10=
PLAYORDER=
